/* XPM */
static char * grip_xpm[] = {
"32 32 312 2",
"  	c None",
". 	c #E7455B",
"+ 	c #EF7F8E",
"@ 	c #EF5569",
"# 	c #EA3A50",
"$ 	c #EC2C44",
"% 	c #E9324A",
"& 	c #E9334A",
"* 	c #EA2F47",
"= 	c #EE6274",
"- 	c #F07484",
"; 	c #F04B61",
"> 	c #F07283",
", 	c #ED4F64",
"' 	c #EE5367",
") 	c #ED5C70",
"! 	c #F05C6F",
"~ 	c #EF576C",
"{ 	c #EF576B",
"] 	c #F05A6E",
"^ 	c #EF697B",
"/ 	c #EE6A7C",
"( 	c #E6273F",
"_ 	c #F38795",
": 	c #ED4156",
"< 	c #F16C7F",
"[ 	c #EF5B70",
"} 	c #EF6275",
"| 	c #EF6577",
"1 	c #ED455A",
"2 	c #EF2A42",
"3 	c #F14A5F",
"4 	c #F496A2",
"5 	c #EA475C",
"6 	c #F28291",
"7 	c #ED384F",
"8 	c #F1687B",
"9 	c #EF5B6F",
"0 	c #F03A52",
"a 	c #F07284",
"b 	c #EF596D",
"c 	c #F0697A",
"d 	c #EF6879",
"e 	c #EE5A6D",
"f 	c #F16F81",
"g 	c #ED5166",
"h 	c #EE3A52",
"i 	c #F06E80",
"j 	c #F0445B",
"k 	c #F38796",
"l 	c #EB4B5F",
"m 	c #F28896",
"n 	c #EC3D54",
"o 	c #EF3C52",
"p 	c #EE6174",
"q 	c #EF687B",
"r 	c #EF4C62",
"s 	c #EE4D61",
"t 	c #F17C8C",
"u 	c #ED5769",
"v 	c #F3808F",
"w 	c #EC4257",
"x 	c #F17888",
"y 	c #EB384F",
"z 	c #ED5469",
"A 	c #EE6E7E",
"B 	c #EC5B6E",
"C 	c #F37686",
"D 	c #EC2942",
"E 	c #EE495D",
"F 	c #EC6C7D",
"G 	c #EF6C7E",
"H 	c #F37D8C",
"I 	c #F2919E",
"J 	c #E44157",
"K 	c #F06B7D",
"L 	c #EA273F",
"M 	c #E81D35",
"N 	c #F5909D",
"O 	c #ED394F",
"P 	c #EE364D",
"Q 	c #F27283",
"R 	c #F48392",
"S 	c #F38291",
"T 	c #F08492",
"U 	c #F27D8C",
"V 	c #EE6778",
"W 	c #EA4F62",
"X 	c #EE485D",
"Y 	c #EA253E",
"Z 	c #EC3E55",
"` 	c #EF6174",
" .	c #E73D53",
"..	c #EF7080",
"+.	c #F27A89",
"@.	c #EE243E",
"#.	c #EB5064",
"$.	c #EB4E62",
"%.	c #EC4F63",
"&.	c #ED5E70",
"*.	c #F17A8A",
"=.	c #EA4D61",
"-.	c #ED5065",
";.	c #EA4257",
">.	c #EA3048",
",.	c #EF6376",
"'.	c #F26074",
").	c #F05D70",
"!.	c #E22B43",
"~.	c #EA3349",
"{.	c #EF586C",
"].	c #F1697B",
"^.	c #F07989",
"/.	c #F38392",
"(.	c #F37B8A",
"_.	c #F1697A",
":.	c #F26A7B",
"<.	c #ED6D7E",
"[.	c #F06477",
"}.	c #EA4359",
"|.	c #EF5368",
"1.	c #E23249",
"2.	c #EF8191",
"3.	c #EF6E7F",
"4.	c #EF5266",
"5.	c #EF485E",
"6.	c #EF3D54",
"7.	c #EB5C6F",
"8.	c #F16577",
"9.	c #EB384D",
"0.	c #EB4C61",
"a.	c #EF4B61",
"b.	c #D15073",
"c.	c #D86683",
"d.	c #D42C50",
"e.	c #ED5367",
"f.	c #E93D53",
"g.	c #E74259",
"h.	c #EE7084",
"i.	c #E9566E",
"j.	c #D35C7E",
"k.	c #9D6F9E",
"l.	c #8473A9",
"m.	c #EA5D70",
"n.	c #EB435A",
"o.	c #E5566E",
"p.	c #B25A87",
"q.	c #A36497",
"r.	c #5482C6",
"s.	c #4599DC",
"t.	c #D74666",
"u.	c #E5556C",
"v.	c #D46F8D",
"w.	c #835391",
"x.	c #4E91DD",
"y.	c #50A4EB",
"z.	c #3598EE",
"A.	c #228BE7",
"B.	c #228BE4",
"C.	c #3488DA",
"D.	c #5177C6",
"E.	c #4070C0",
"F.	c #267ED8",
"G.	c #2084D9",
"H.	c #1583E9",
"I.	c #208AE4",
"J.	c #258DEA",
"K.	c #3697EC",
"L.	c #56A1E7",
"M.	c #588CD4",
"N.	c #A66595",
"O.	c #C74B70",
"P.	c #936AA0",
"Q.	c #8CB3E3",
"R.	c #9AC9F2",
"S.	c #81BEF2",
"T.	c #86C2F3",
"U.	c #93C7F2",
"V.	c #67B2EE",
"W.	c #1C87E8",
"X.	c #83BEEF",
"Y.	c #95CAF4",
"Z.	c #419AE4",
"`.	c #469EEB",
" +	c #6DB3EA",
".+	c #1E8CED",
"++	c #61AEED",
"@+	c #9ACAF4",
"#+	c #86C0F2",
"$+	c #87BEF0",
"%+	c #9ECBF2",
"&+	c #87A5D8",
"*+	c #5E77C0",
"=+	c #6A9DDB",
"-+	c #A9CFF3",
";+	c #6C91D4",
">+	c #4B7ED3",
",+	c #3E98EC",
"'+	c #9FCEF6",
")+	c #80BFF4",
"!+	c #218CED",
"~+	c #A0CEF5",
"{+	c #69B3F4",
"]+	c #1E8DF2",
"^+	c #56A7F0",
"/+	c #87C0F0",
"(+	c #228FF1",
"_+	c #79BBF3",
":+	c #91C6F4",
"<+	c #498EE1",
"[+	c #6174C1",
"}+	c #6F94D5",
"|+	c #AAD1F4",
"1+	c #5996DE",
"2+	c #7EB7F0",
"3+	c #95BEEB",
"4+	c #8385C2",
"5+	c #935591",
"6+	c #4571CD",
"7+	c #74B4EE",
"8+	c #86C2F5",
"9+	c #9BCBF5",
"0+	c #46A2F2",
"a+	c #57A8F0",
"b+	c #89C1F0",
"c+	c #238FF1",
"d+	c #7BBBF3",
"e+	c #67A4E7",
"f+	c #6767B4",
"g+	c #A573A5",
"h+	c #7B77B9",
"i+	c #8DC3F3",
"j+	c #6FB3F1",
"k+	c #75B7EF",
"l+	c #9FC5EE",
"m+	c #7182C6",
"n+	c #967DB6",
"o+	c #616FBC",
"p+	c #8CC1F1",
"q+	c #85C0F4",
"r+	c #248BEB",
"s+	c #9ACBF4",
"t+	c #56A8F0",
"u+	c #58A7EE",
"v+	c #88C1F0",
"w+	c #288BEC",
"x+	c #7CBAF1",
"y+	c #7DB0E8",
"z+	c #7880C3",
"A+	c #8F78B4",
"B+	c #5474C4",
"C+	c #A2CFF5",
"D+	c #5AAAF0",
"E+	c #8CC5F4",
"F+	c #90C3F1",
"G+	c #71A4E1",
"H+	c #7FB9EE",
"I+	c #B3D7F7",
"J+	c #83B9EE",
"K+	c #387FD6",
"L+	c #8BC1EE",
"M+	c #5189D5",
"N+	c #605DAD",
"O+	c #5F97DA",
"P+	c #78B6EB",
"Q+	c #4480D5",
"R+	c #7AB3EB",
"S+	c #A4D0F6",
"T+	c #7EB6EC",
"U+	c #6FA6E4",
"V+	c #95C6F2",
"W+	c #8DC6F2",
"X+	c #2D91EA",
"Y+	c #59A9EF",
"Z+	c #64AFEF",
"`+	c #52A2ED",
" @	c #8EC3F3",
".@	c #82B0E5",
"+@	c #6778BD",
"@@	c #709BD4",
"#@	c #7E81B9",
"$@	c #A46EA0",
"%@	c #7889C0",
"&@	c #6690CB",
"*@	c #657DC3",
"=@	c #89B8E9",
"-@	c #82BBF0",
";@	c #5CA6EC",
">@	c #6BB2EF",
",@	c #5FACEF",
"'@	c #5AB0EF",
")@	c #5FADF1",
"!@	c #3D99EE",
"~@	c #58A7EF",
"{@	c #9BCBF4",
"]@	c #5C92D6",
"^@	c #8C5390",
"/@	c #AA4F7E",
"(@	c #C35D7F",
"_@	c #CD5F7D",
":@	c #BA5179",
"<@	c #9E4B80",
"[@	c #6369B3",
"}@	c #78B0E8",
"|@	c #5CA6E8",
"1@	c #59AAEC",
"2@	c #72B7F2",
"3@	c #84C0F4",
"4@	c #7BBCF3",
"5@	c #4AA0EB",
"6@	c #338FDD",
"7@	c #2786D6",
"                                                                ",
"                                                                ",
"                                                                ",
"                                                                ",
"                                        . + @ #                 ",
"                          $ % & *       = - ; > ,               ",
"                    ' ' ) ! ~ { ] ^ / ( _ :     < [             ",
"                  } | 1         2 3 4 5 6       7 8 9           ",
"              0 a b               c d > e           f g         ",
"            h i j                 k l m n           o p         ",
"            q r                 s t u v             w x y       ",
"          z <                   A B - C     D E F G H I J       ",
"          K L                 M N O P Q R S T U V W X Y         ",
"        Z `                  ...+.    @.#.$.%.&.*.=.            ",
"        -.;.            >.,.'.).!.~.{.].^./.(._.:.<.            ",
"        [.y             }.|.    1.2.3.4.5.      6.7.            ",
"        8.9.            0.a.    b.c.d.            7.            ",
"        e.f.            g.h.i.j.k.l.              m.            ",
"        n.o.                p.q.r.s.            t.u.            ",
"          v.w.x.y.z.A.B.  C.D.E.F.G.H.I.J.K.L.M.N.O.            ",
"          P.Q.R.S.T.U.V.W.X.Y.Z.`. +.+++@+#+$+%+&+*+            ",
"          =+-+;+>+,+'+)+!+~+{+]+^+/+(+_+:+<+[+}+|+1+            ",
"          2+3+4+5+6+7+8+!+9+0+  a+b+c+d+e+f+g+h+i+j+            ",
"          k+l+m+n+o+p+q+r+s+t+  u+v+w+x+y+z+A+B+C+D+            ",
"            E+F+G+H+I+J+K+L+M+N+O+P+Q+R+S+T+U+V+W+              ",
"            X+Y+Z+`+ @.@+@@@#@$@%@&@*@=@-@;@>@,@                ",
"            '@)@!@~@{@]@^@/@(@_@:@<@[@}@|@                      ",
"            1@2@3@4@5@                6@7@                      ",
"                                                                ",
"                                                                ",
"                                                                ",
"                                                                "};
